<svg xmlns="http://www.w3.org/2000/svg" data-name="Layer 4" viewBox="0 0 24 30" x="0px" y="0px"><g data-name="Nigth, Dark Mode"><path d="M12.836,22a9.8,9.8,0,0,1-6.762-2.881A9.93,9.93,0,0,1,3,12a10.289,10.289,0,0,1,8.852-9.988,1,1,0,0,1,.991,1.528,8.151,8.151,0,0,0-.01,8.906C15.293,16.144,19.765,16,19.96,16a.947.947,0,0,1,.921.525,1,1,0,0,1-.069,1.057C20.3,18.3,17.487,21.9,13.021,22ZM10.128,4.551A8.177,8.177,0,0,0,5,12a7.944,7.944,0,0,0,2.473,5.69A7.824,7.824,0,0,0,12.978,20a7.647,7.647,0,0,0,4.958-2.185,10.128,10.128,0,0,1-6.769-4.26A10.073,10.073,0,0,1,10.128,4.551Z"/></g><text x="0" y="39" fill="#000000" font-size="5px" font-weight="bold" font-family="'Helvetica Neue', Helvetica, Arial-Unicode, Arial, Sans-serif">Created by KP Arts</text><text x="0" y="44" fill="#000000" font-size="5px" font-weight="bold" font-family="'Helvetica Neue', Helvetica, Arial-Unicode, Arial, Sans-serif">from the Noun Project</text></svg>